<mxfile host="Electron" agent="Mozilla/5.0 (Windows NT 10.0; Win64; x64) AppleWebKit/537.36 (KHTML, like Gecko) draw.io/26.0.7 Chrome/128.0.6613.186 Electron/32.2.5 Safari/537.36" version="26.0.7">
  <diagram name="Page-1" id="58cdce13-f638-feb5-8d6f-7d28b1aa9fa0">
    <mxGraphModel dx="1036" dy="751" grid="1" gridSize="10" guides="1" tooltips="1" connect="1" arrows="1" fold="1" page="1" pageScale="1" pageWidth="1100" pageHeight="850" background="none" math="0" shadow="0">
      <root>
        <mxCell id="0" />
        <mxCell id="1" parent="0" />
        <mxCell id="382b91b5511bd0f7-1" value="" style="ellipse;html=1;shape=startState;fillColor=light-dark(#00ff00, #ededed);strokeColor=default;rounded=1;shadow=0;comic=0;labelBackgroundColor=none;fontFamily=Verdana;fontSize=12;fontColor=#000000;align=center;direction=south;" parent="1" vertex="1">
          <mxGeometry x="130" y="120" width="30" height="30" as="geometry" />
        </mxCell>
        <mxCell id="382b91b5511bd0f7-6" value="Show List" style="rounded=1;whiteSpace=wrap;html=1;arcSize=24;fillColor=#ffffc0;strokeColor=#ff0000;shadow=0;comic=0;labelBackgroundColor=none;fontFamily=Verdana;fontSize=12;fontColor=#000000;align=center;" parent="1" vertex="1">
          <mxGeometry x="270" y="105" width="120" height="60" as="geometry" />
        </mxCell>
        <mxCell id="2a3bc250acf0617d-9" style="edgeStyle=orthogonalEdgeStyle;html=1;labelBackgroundColor=none;endArrow=open;endSize=8;strokeColor=#ff0000;fontFamily=Verdana;fontSize=12;align=left;" parent="1" source="382b91b5511bd0f7-1" target="382b91b5511bd0f7-6" edge="1">
          <mxGeometry relative="1" as="geometry" />
        </mxCell>
        <mxCell id="g83DrFT-0k21BZuROjUB-3" value="Save" style="rounded=1;whiteSpace=wrap;html=1;arcSize=24;fillColor=#ffffc0;strokeColor=#ff0000;shadow=0;comic=0;labelBackgroundColor=none;fontFamily=Verdana;fontSize=12;fontColor=#000000;align=center;verticalAlign=top;" vertex="1" parent="1">
          <mxGeometry x="480" y="92" width="120" height="140" as="geometry" />
        </mxCell>
        <mxCell id="g83DrFT-0k21BZuROjUB-4" value="Data loaded" style="text;html=1;align=center;verticalAlign=middle;whiteSpace=wrap;rounded=0;" vertex="1" parent="1">
          <mxGeometry x="170" y="130" width="70" height="30" as="geometry" />
        </mxCell>
        <mxCell id="g83DrFT-0k21BZuROjUB-5" value="Edit item" style="text;html=1;align=center;verticalAlign=middle;whiteSpace=wrap;rounded=0;" vertex="1" parent="1">
          <mxGeometry x="400" y="130" width="70" height="30" as="geometry" />
        </mxCell>
        <mxCell id="g83DrFT-0k21BZuROjUB-6" style="edgeStyle=orthogonalEdgeStyle;html=1;labelBackgroundColor=none;endArrow=open;endSize=8;strokeColor=#ff0000;fontFamily=Verdana;fontSize=12;align=left;exitX=1;exitY=0.5;exitDx=0;exitDy=0;entryX=0.01;entryY=0.311;entryDx=0;entryDy=0;entryPerimeter=0;" edge="1" parent="1" source="382b91b5511bd0f7-6" target="g83DrFT-0k21BZuROjUB-3">
          <mxGeometry relative="1" as="geometry">
            <mxPoint x="400" y="175" as="sourcePoint" />
            <mxPoint x="480" y="135" as="targetPoint" />
          </mxGeometry>
        </mxCell>
        <mxCell id="g83DrFT-0k21BZuROjUB-9" value="Update&lt;div&gt;Success&lt;/div&gt;" style="rounded=1;whiteSpace=wrap;html=1;arcSize=24;fillColor=#dae8fc;strokeColor=#6c8ebf;shadow=0;comic=0;labelBackgroundColor=none;fontFamily=Verdana;fontSize=12;align=center;verticalAlign=top;" vertex="1" parent="1">
          <mxGeometry x="495" y="123" width="90" height="45" as="geometry" />
        </mxCell>
        <mxCell id="g83DrFT-0k21BZuROjUB-10" style="edgeStyle=orthogonalEdgeStyle;html=1;labelBackgroundColor=none;endArrow=open;endSize=8;strokeColor=#ff0000;fontFamily=Verdana;fontSize=12;align=left;exitX=1;exitY=0.5;exitDx=0;exitDy=0;entryX=0.5;entryY=0;entryDx=0;entryDy=0;" edge="1" parent="1" source="g83DrFT-0k21BZuROjUB-9" target="382b91b5511bd0f7-6">
          <mxGeometry relative="1" as="geometry">
            <mxPoint x="600" y="134.5" as="sourcePoint" />
            <mxPoint x="710" y="134.5" as="targetPoint" />
            <Array as="points">
              <mxPoint x="630" y="146" />
              <mxPoint x="630" y="75" />
              <mxPoint x="330" y="75" />
            </Array>
          </mxGeometry>
        </mxCell>
        <mxCell id="g83DrFT-0k21BZuROjUB-11" style="edgeStyle=orthogonalEdgeStyle;html=1;labelBackgroundColor=none;endArrow=open;endSize=8;strokeColor=#ff0000;fontFamily=Verdana;fontSize=12;align=left;entryX=0.5;entryY=0;entryDx=0;entryDy=0;exitX=1;exitY=0.5;exitDx=0;exitDy=0;" edge="1" parent="1" source="g83DrFT-0k21BZuROjUB-16" target="382b91b5511bd0f7-6">
          <mxGeometry relative="1" as="geometry">
            <mxPoint x="600" y="224.5" as="sourcePoint" />
            <mxPoint x="710" y="224.5" as="targetPoint" />
            <Array as="points">
              <mxPoint x="630" y="198" />
              <mxPoint x="630" y="75" />
              <mxPoint x="330" y="75" />
            </Array>
          </mxGeometry>
        </mxCell>
        <mxCell id="g83DrFT-0k21BZuROjUB-13" value="Delete" style="rounded=1;whiteSpace=wrap;html=1;arcSize=24;fillColor=#ffffc0;strokeColor=#ff0000;shadow=0;comic=0;labelBackgroundColor=none;fontFamily=Verdana;fontSize=12;fontColor=#000000;align=center;verticalAlign=top;" vertex="1" parent="1">
          <mxGeometry x="480" y="282" width="120" height="80" as="geometry" />
        </mxCell>
        <mxCell id="g83DrFT-0k21BZuROjUB-14" value="Delete&lt;div&gt;Success&lt;/div&gt;" style="rounded=1;whiteSpace=wrap;html=1;arcSize=24;fillColor=#dae8fc;strokeColor=#6c8ebf;shadow=0;comic=0;labelBackgroundColor=none;fontFamily=Verdana;fontSize=12;align=center;verticalAlign=top;" vertex="1" parent="1">
          <mxGeometry x="495" y="310" width="90" height="45" as="geometry" />
        </mxCell>
        <mxCell id="g83DrFT-0k21BZuROjUB-15" style="edgeStyle=orthogonalEdgeStyle;html=1;labelBackgroundColor=none;endArrow=open;endSize=8;strokeColor=#ff0000;fontFamily=Verdana;fontSize=12;align=left;exitX=0.5;exitY=1;exitDx=0;exitDy=0;entryX=0;entryY=0.5;entryDx=0;entryDy=0;" edge="1" parent="1" source="382b91b5511bd0f7-6" target="g83DrFT-0k21BZuROjUB-13">
          <mxGeometry relative="1" as="geometry">
            <mxPoint x="400" y="165" as="sourcePoint" />
            <mxPoint x="490" y="165" as="targetPoint" />
          </mxGeometry>
        </mxCell>
        <mxCell id="g83DrFT-0k21BZuROjUB-16" value="Update&lt;div&gt;Cancelled&lt;/div&gt;" style="rounded=1;whiteSpace=wrap;html=1;arcSize=24;fillColor=#dae8fc;strokeColor=#6c8ebf;shadow=0;comic=0;labelBackgroundColor=none;fontFamily=Verdana;fontSize=12;align=center;verticalAlign=top;" vertex="1" parent="1">
          <mxGeometry x="495" y="175" width="90" height="45" as="geometry" />
        </mxCell>
        <mxCell id="g83DrFT-0k21BZuROjUB-17" value="Delete item" style="text;html=1;align=center;verticalAlign=middle;whiteSpace=wrap;rounded=0;" vertex="1" parent="1">
          <mxGeometry x="330" y="175" width="70" height="30" as="geometry" />
        </mxCell>
        <mxCell id="g83DrFT-0k21BZuROjUB-19" style="edgeStyle=orthogonalEdgeStyle;html=1;labelBackgroundColor=none;endArrow=open;endSize=8;strokeColor=#ff0000;fontFamily=Verdana;fontSize=12;align=left;exitX=0.5;exitY=1;exitDx=0;exitDy=0;" edge="1" parent="1" source="g83DrFT-0k21BZuROjUB-3" target="g83DrFT-0k21BZuROjUB-18">
          <mxGeometry relative="1" as="geometry">
            <mxPoint x="520" y="259.5" as="sourcePoint" />
            <mxPoint x="690" y="250" as="targetPoint" />
            <Array as="points">
              <mxPoint x="540" y="250" />
            </Array>
          </mxGeometry>
        </mxCell>
        <mxCell id="g83DrFT-0k21BZuROjUB-22" style="edgeStyle=orthogonalEdgeStyle;html=1;labelBackgroundColor=none;endArrow=open;endSize=8;strokeColor=#ff0000;fontFamily=Verdana;fontSize=12;align=left;exitX=0.5;exitY=0;exitDx=0;exitDy=0;entryX=0.5;entryY=0;entryDx=0;entryDy=0;" edge="1" parent="1" source="g83DrFT-0k21BZuROjUB-13" target="g83DrFT-0k21BZuROjUB-18">
          <mxGeometry relative="1" as="geometry">
            <mxPoint x="550" y="177" as="sourcePoint" />
            <mxPoint x="540" y="244" as="targetPoint" />
            <Array as="points">
              <mxPoint x="540" y="250" />
            </Array>
          </mxGeometry>
        </mxCell>
        <mxCell id="g83DrFT-0k21BZuROjUB-23" style="edgeStyle=orthogonalEdgeStyle;html=1;labelBackgroundColor=none;endArrow=open;endSize=8;strokeColor=#ff0000;fontFamily=Verdana;fontSize=12;align=left;entryX=0.5;entryY=0;entryDx=0;entryDy=0;exitX=1;exitY=0.5;exitDx=0;exitDy=0;" edge="1" parent="1" source="g83DrFT-0k21BZuROjUB-14" target="382b91b5511bd0f7-6">
          <mxGeometry relative="1" as="geometry">
            <mxPoint x="595" y="208" as="sourcePoint" />
            <mxPoint x="340" y="115" as="targetPoint" />
            <Array as="points">
              <mxPoint x="630" y="333" />
              <mxPoint x="630" y="75" />
              <mxPoint x="330" y="75" />
            </Array>
          </mxGeometry>
        </mxCell>
        <mxCell id="g83DrFT-0k21BZuROjUB-24" value="To-Do List State Diagram" style="swimlane;" vertex="1" parent="1">
          <mxGeometry x="90" y="40" width="640" height="340" as="geometry">
            <mxRectangle x="430" y="190" width="90" height="30" as="alternateBounds" />
          </mxGeometry>
        </mxCell>
        <mxCell id="g83DrFT-0k21BZuROjUB-18" value="" style="ellipse;html=1;shape=startState;fillColor=light-dark(#00ff00, #ededed);strokeColor=default;rounded=1;shadow=0;comic=0;labelBackgroundColor=none;fontFamily=Verdana;fontSize=12;fontColor=#000000;align=center;direction=south;perimeterSpacing=0;" vertex="1" parent="g83DrFT-0k21BZuROjUB-24">
          <mxGeometry x="333" y="195" width="30" height="30" as="geometry" />
        </mxCell>
        <mxCell id="g83DrFT-0k21BZuROjUB-25" value="Contact State Diagram" style="swimlane;" vertex="1" parent="1">
          <mxGeometry x="90" y="400" width="640" height="380" as="geometry">
            <mxRectangle x="430" y="190" width="90" height="30" as="alternateBounds" />
          </mxGeometry>
        </mxCell>
        <mxCell id="g83DrFT-0k21BZuROjUB-59" value="" style="rounded=1;whiteSpace=wrap;html=1;arcSize=12;fillColor=#ffffc0;strokeColor=#000000;shadow=0;comic=0;labelBackgroundColor=none;fontFamily=Verdana;fontSize=12;fontColor=#000000;align=center;" vertex="1" parent="g83DrFT-0k21BZuROjUB-25">
          <mxGeometry x="258" y="40" width="240" height="330" as="geometry" />
        </mxCell>
        <mxCell id="g83DrFT-0k21BZuROjUB-58" value="Submitting" style="rounded=1;whiteSpace=wrap;html=1;arcSize=12;fillColor=#dae8fc;strokeColor=#6c8ebf;shadow=0;comic=0;labelBackgroundColor=none;fontFamily=Verdana;fontSize=12;align=center;verticalAlign=top;" vertex="1" parent="g83DrFT-0k21BZuROjUB-25">
          <mxGeometry x="298" y="209" width="160" height="150" as="geometry" />
        </mxCell>
        <mxCell id="g83DrFT-0k21BZuROjUB-26" value="" style="ellipse;html=1;shape=startState;fillColor=light-dark(#00ff00, #ededed);strokeColor=default;rounded=1;shadow=0;comic=0;labelBackgroundColor=none;fontFamily=Verdana;fontSize=12;fontColor=#000000;align=center;direction=south;" vertex="1" parent="g83DrFT-0k21BZuROjUB-25">
          <mxGeometry x="25" y="134.5" width="30" height="30" as="geometry" />
        </mxCell>
        <mxCell id="g83DrFT-0k21BZuROjUB-27" value="Normal" style="rounded=1;whiteSpace=wrap;html=1;arcSize=24;fillColor=#ffffc0;strokeColor=#000000;shadow=0;comic=0;labelBackgroundColor=none;fontFamily=Verdana;fontSize=12;fontColor=#000000;align=center;" vertex="1" parent="g83DrFT-0k21BZuROjUB-25">
          <mxGeometry x="83" y="119.5" width="120" height="60" as="geometry" />
        </mxCell>
        <mxCell id="g83DrFT-0k21BZuROjUB-28" style="edgeStyle=orthogonalEdgeStyle;html=1;labelBackgroundColor=none;endArrow=open;endSize=8;strokeColor=#ff0000;fontFamily=Verdana;fontSize=12;align=left;entryX=0;entryY=0.5;entryDx=0;entryDy=0;" edge="1" parent="g83DrFT-0k21BZuROjUB-25" source="g83DrFT-0k21BZuROjUB-26" target="g83DrFT-0k21BZuROjUB-27">
          <mxGeometry relative="1" as="geometry">
            <mxPoint x="60" y="150.5" as="sourcePoint" />
            <mxPoint x="80" y="151" as="targetPoint" />
          </mxGeometry>
        </mxCell>
        <mxCell id="g83DrFT-0k21BZuROjUB-47" value="Errors" style="rounded=1;whiteSpace=wrap;html=1;arcSize=24;fillColor=#ffffc0;strokeColor=#000000;shadow=0;comic=0;labelBackgroundColor=none;fontFamily=Verdana;fontSize=12;fontColor=#000000;align=center;" vertex="1" parent="g83DrFT-0k21BZuROjUB-25">
          <mxGeometry x="83" y="224" width="120" height="60" as="geometry" />
        </mxCell>
        <mxCell id="g83DrFT-0k21BZuROjUB-39" value="Submitted&lt;div&gt;Success&lt;/div&gt;" style="rounded=1;whiteSpace=wrap;html=1;arcSize=24;fillColor=#dae8fc;strokeColor=#6c8ebf;shadow=0;comic=0;labelBackgroundColor=none;fontFamily=Verdana;fontSize=12;align=center;verticalAlign=top;" vertex="1" parent="g83DrFT-0k21BZuROjUB-25">
          <mxGeometry x="333" y="239" width="90" height="45" as="geometry" />
        </mxCell>
        <mxCell id="g83DrFT-0k21BZuROjUB-49" value="Submitted&lt;div&gt;Faillure&lt;/div&gt;" style="rounded=1;whiteSpace=wrap;html=1;arcSize=24;fillColor=#dae8fc;strokeColor=#6c8ebf;shadow=0;comic=0;labelBackgroundColor=none;fontFamily=Verdana;fontSize=12;align=center;verticalAlign=top;" vertex="1" parent="g83DrFT-0k21BZuROjUB-25">
          <mxGeometry x="333" y="297.5" width="90" height="45" as="geometry" />
        </mxCell>
        <mxCell id="g83DrFT-0k21BZuROjUB-52" value="Validation" style="rounded=1;whiteSpace=wrap;html=1;arcSize=12;fillColor=#dae8fc;strokeColor=#6c8ebf;shadow=0;comic=0;labelBackgroundColor=none;fontFamily=Verdana;fontSize=12;align=center;verticalAlign=top;" vertex="1" parent="g83DrFT-0k21BZuROjUB-25">
          <mxGeometry x="298" y="51" width="160" height="148" as="geometry" />
        </mxCell>
        <mxCell id="g83DrFT-0k21BZuROjUB-33" value="Validation&lt;div&gt;Success&lt;/div&gt;" style="rounded=1;whiteSpace=wrap;html=1;arcSize=24;fillColor=#dae8fc;strokeColor=#6c8ebf;shadow=0;comic=0;labelBackgroundColor=none;fontFamily=Verdana;fontSize=12;align=center;verticalAlign=top;" vertex="1" parent="g83DrFT-0k21BZuROjUB-25">
          <mxGeometry x="333" y="82" width="90" height="45" as="geometry" />
        </mxCell>
        <mxCell id="g83DrFT-0k21BZuROjUB-48" value="Validation&lt;div&gt;Failure&lt;/div&gt;" style="rounded=1;whiteSpace=wrap;html=1;arcSize=24;fillColor=#dae8fc;strokeColor=#6c8ebf;shadow=0;comic=0;labelBackgroundColor=none;fontFamily=Verdana;fontSize=12;align=center;verticalAlign=top;" vertex="1" parent="g83DrFT-0k21BZuROjUB-25">
          <mxGeometry x="333" y="134.5" width="90" height="45" as="geometry" />
        </mxCell>
        <mxCell id="g83DrFT-0k21BZuROjUB-60" style="edgeStyle=orthogonalEdgeStyle;html=1;labelBackgroundColor=none;endArrow=open;endSize=8;strokeColor=#ff0000;fontFamily=Verdana;fontSize=12;align=left;exitX=1;exitY=0.5;exitDx=0;exitDy=0;entryX=0;entryY=0.5;entryDx=0;entryDy=0;" edge="1" parent="g83DrFT-0k21BZuROjUB-25" source="g83DrFT-0k21BZuROjUB-27" target="g83DrFT-0k21BZuROjUB-52">
          <mxGeometry relative="1" as="geometry">
            <mxPoint x="48" y="160.5" as="sourcePoint" />
            <mxPoint x="256" y="190" as="targetPoint" />
            <Array as="points">
              <mxPoint x="250" y="150" />
              <mxPoint x="250" y="125" />
            </Array>
          </mxGeometry>
        </mxCell>
        <mxCell id="g83DrFT-0k21BZuROjUB-61" style="edgeStyle=orthogonalEdgeStyle;html=1;labelBackgroundColor=none;endArrow=open;endSize=8;strokeColor=#ff0000;fontFamily=Verdana;fontSize=12;align=left;entryX=1;entryY=0.5;entryDx=0;entryDy=0;exitX=1;exitY=0.5;exitDx=0;exitDy=0;" edge="1" parent="g83DrFT-0k21BZuROjUB-25" source="g83DrFT-0k21BZuROjUB-33" target="g83DrFT-0k21BZuROjUB-58">
          <mxGeometry relative="1" as="geometry">
            <mxPoint x="530" y="134.5" as="sourcePoint" />
            <mxPoint x="587" y="174.5" as="targetPoint" />
            <Array as="points">
              <mxPoint x="490" y="105" />
              <mxPoint x="490" y="284" />
            </Array>
          </mxGeometry>
        </mxCell>
        <mxCell id="g83DrFT-0k21BZuROjUB-62" style="edgeStyle=orthogonalEdgeStyle;html=1;labelBackgroundColor=none;endArrow=open;endSize=8;strokeColor=#ff0000;fontFamily=Verdana;fontSize=12;align=left;entryX=1;entryY=0.5;entryDx=0;entryDy=0;exitX=0;exitY=0.5;exitDx=0;exitDy=0;" edge="1" parent="g83DrFT-0k21BZuROjUB-25" source="g83DrFT-0k21BZuROjUB-48" target="g83DrFT-0k21BZuROjUB-47">
          <mxGeometry relative="1" as="geometry">
            <mxPoint x="213" y="160" as="sourcePoint" />
            <mxPoint x="270" y="200" as="targetPoint" />
          </mxGeometry>
        </mxCell>
        <mxCell id="g83DrFT-0k21BZuROjUB-63" style="edgeStyle=orthogonalEdgeStyle;html=1;labelBackgroundColor=none;endArrow=open;endSize=8;strokeColor=#ff0000;fontFamily=Verdana;fontSize=12;align=left;entryX=0;entryY=0.5;entryDx=0;entryDy=0;exitX=0.5;exitY=0;exitDx=0;exitDy=0;" edge="1" parent="g83DrFT-0k21BZuROjUB-25" source="g83DrFT-0k21BZuROjUB-47" target="g83DrFT-0k21BZuROjUB-52">
          <mxGeometry relative="1" as="geometry">
            <mxPoint x="223" y="170" as="sourcePoint" />
            <mxPoint x="280" y="210" as="targetPoint" />
            <Array as="points">
              <mxPoint x="143" y="200" />
              <mxPoint x="250" y="200" />
              <mxPoint x="250" y="125" />
            </Array>
          </mxGeometry>
        </mxCell>
        <mxCell id="g83DrFT-0k21BZuROjUB-64" style="edgeStyle=orthogonalEdgeStyle;html=1;labelBackgroundColor=none;endArrow=open;endSize=8;strokeColor=#ff0000;fontFamily=Verdana;fontSize=12;align=left;entryX=0.5;entryY=1;entryDx=0;entryDy=0;" edge="1" parent="g83DrFT-0k21BZuROjUB-25" source="g83DrFT-0k21BZuROjUB-49" target="g83DrFT-0k21BZuROjUB-47">
          <mxGeometry relative="1" as="geometry">
            <mxPoint x="233" y="180" as="sourcePoint" />
            <mxPoint x="290" y="220" as="targetPoint" />
          </mxGeometry>
        </mxCell>
        <mxCell id="g83DrFT-0k21BZuROjUB-65" value="" style="ellipse;html=1;shape=startState;fillColor=light-dark(#00ff00, #ededed);strokeColor=default;rounded=1;shadow=0;comic=0;labelBackgroundColor=none;fontFamily=Verdana;fontSize=12;fontColor=#000000;align=center;direction=south;" vertex="1" parent="g83DrFT-0k21BZuROjUB-25">
          <mxGeometry x="573" y="298.5" width="30" height="30" as="geometry" />
        </mxCell>
        <mxCell id="g83DrFT-0k21BZuROjUB-66" style="edgeStyle=orthogonalEdgeStyle;html=1;labelBackgroundColor=none;endArrow=open;endSize=8;strokeColor=#ff0000;fontFamily=Verdana;fontSize=12;align=left;exitX=1;exitY=0.5;exitDx=0;exitDy=0;entryX=0.5;entryY=1;entryDx=0;entryDy=0;" edge="1" parent="g83DrFT-0k21BZuROjUB-25" source="g83DrFT-0k21BZuROjUB-39" target="g83DrFT-0k21BZuROjUB-65">
          <mxGeometry relative="1" as="geometry">
            <mxPoint x="510" y="330" as="sourcePoint" />
            <mxPoint x="563" y="370" as="targetPoint" />
            <Array as="points">
              <mxPoint x="440" y="262" />
              <mxPoint x="440" y="314" />
              <mxPoint x="540" y="314" />
            </Array>
          </mxGeometry>
        </mxCell>
      </root>
    </mxGraphModel>
  </diagram>
</mxfile>
